<mxfile host="app.diagrams.net" modified="2024-07-03T11:35:42.646Z" agent="Mozilla/5.0 (Windows NT 10.0; Win64; x64) AppleWebKit/537.36 (KHTML, like Gecko) Chrome/126.0.0.0 Safari/537.36" etag="sdTG5Wfnj73YN2AiSF2X" version="24.2.5" type="device">
  <diagram name="Seite-1" id="TZQSSnb__b2ue_40bBjd">
    <mxGraphModel dx="1122" dy="454" grid="1" gridSize="10" guides="1" tooltips="1" connect="1" arrows="1" fold="1" page="1" pageScale="1" pageWidth="827" pageHeight="1169" math="0" shadow="0">
      <root>
        <mxCell id="0" />
        <mxCell id="1" parent="0" />
        <mxCell id="x9mMvLB8LZn9rVJ4WLBo-2" value="" style="rounded=0;whiteSpace=wrap;html=1;" vertex="1" parent="1">
          <mxGeometry x="310" y="30" width="500" height="370" as="geometry" />
        </mxCell>
        <mxCell id="x9mMvLB8LZn9rVJ4WLBo-4" style="edgeStyle=orthogonalEdgeStyle;rounded=0;orthogonalLoop=1;jettySize=auto;html=1;" edge="1" parent="1" source="x9mMvLB8LZn9rVJ4WLBo-1" target="x9mMvLB8LZn9rVJ4WLBo-3">
          <mxGeometry relative="1" as="geometry" />
        </mxCell>
        <mxCell id="x9mMvLB8LZn9rVJ4WLBo-14" style="edgeStyle=orthogonalEdgeStyle;rounded=0;orthogonalLoop=1;jettySize=auto;html=1;entryX=0;entryY=0.5;entryDx=0;entryDy=0;" edge="1" parent="1" source="x9mMvLB8LZn9rVJ4WLBo-1" target="x9mMvLB8LZn9rVJ4WLBo-13">
          <mxGeometry relative="1" as="geometry">
            <Array as="points">
              <mxPoint x="205" y="100" />
            </Array>
          </mxGeometry>
        </mxCell>
        <mxCell id="x9mMvLB8LZn9rVJ4WLBo-15" value="Handy Schütteln" style="edgeLabel;html=1;align=center;verticalAlign=middle;resizable=0;points=[];" vertex="1" connectable="0" parent="x9mMvLB8LZn9rVJ4WLBo-14">
          <mxGeometry x="0.3541" y="-1" relative="1" as="geometry">
            <mxPoint as="offset" />
          </mxGeometry>
        </mxCell>
        <mxCell id="x9mMvLB8LZn9rVJ4WLBo-1" value="User" style="shape=umlActor;verticalLabelPosition=bottom;verticalAlign=top;html=1;outlineConnect=0;" vertex="1" parent="1">
          <mxGeometry x="190" y="160" width="30" height="60" as="geometry" />
        </mxCell>
        <mxCell id="x9mMvLB8LZn9rVJ4WLBo-11" style="edgeStyle=orthogonalEdgeStyle;rounded=0;orthogonalLoop=1;jettySize=auto;html=1;entryX=0;entryY=0.5;entryDx=0;entryDy=0;" edge="1" parent="1" source="x9mMvLB8LZn9rVJ4WLBo-1" target="x9mMvLB8LZn9rVJ4WLBo-10">
          <mxGeometry relative="1" as="geometry">
            <Array as="points">
              <mxPoint x="205" y="300" />
            </Array>
          </mxGeometry>
        </mxCell>
        <mxCell id="x9mMvLB8LZn9rVJ4WLBo-12" value="Next Button drücken" style="edgeLabel;html=1;align=center;verticalAlign=middle;resizable=0;points=[];" vertex="1" connectable="0" parent="x9mMvLB8LZn9rVJ4WLBo-11">
          <mxGeometry x="0.166" relative="1" as="geometry">
            <mxPoint as="offset" />
          </mxGeometry>
        </mxCell>
        <mxCell id="x9mMvLB8LZn9rVJ4WLBo-3" value="App abrufen" style="rounded=0;whiteSpace=wrap;html=1;" vertex="1" parent="1">
          <mxGeometry x="414" y="160" width="120" height="60" as="geometry" />
        </mxCell>
        <mxCell id="x9mMvLB8LZn9rVJ4WLBo-7" style="edgeStyle=orthogonalEdgeStyle;rounded=0;orthogonalLoop=1;jettySize=auto;html=1;entryX=1;entryY=0.75;entryDx=0;entryDy=0;" edge="1" parent="1" source="x9mMvLB8LZn9rVJ4WLBo-5" target="x9mMvLB8LZn9rVJ4WLBo-3">
          <mxGeometry relative="1" as="geometry">
            <Array as="points">
              <mxPoint x="730" y="150" />
              <mxPoint x="730" y="205" />
            </Array>
          </mxGeometry>
        </mxCell>
        <mxCell id="x9mMvLB8LZn9rVJ4WLBo-9" value="Daten Zurückgeben" style="edgeLabel;html=1;align=center;verticalAlign=middle;resizable=0;points=[];" vertex="1" connectable="0" parent="x9mMvLB8LZn9rVJ4WLBo-7">
          <mxGeometry x="0.1104" relative="1" as="geometry">
            <mxPoint as="offset" />
          </mxGeometry>
        </mxCell>
        <mxCell id="x9mMvLB8LZn9rVJ4WLBo-18" style="edgeStyle=orthogonalEdgeStyle;rounded=0;orthogonalLoop=1;jettySize=auto;html=1;exitX=1;exitY=1;exitDx=0;exitDy=0;exitPerimeter=0;entryX=1;entryY=0.75;entryDx=0;entryDy=0;" edge="1" parent="1" source="x9mMvLB8LZn9rVJ4WLBo-5" target="x9mMvLB8LZn9rVJ4WLBo-10">
          <mxGeometry relative="1" as="geometry" />
        </mxCell>
        <mxCell id="x9mMvLB8LZn9rVJ4WLBo-19" value="Daten Zurückgeben" style="edgeLabel;html=1;align=center;verticalAlign=middle;resizable=0;points=[];" vertex="1" connectable="0" parent="x9mMvLB8LZn9rVJ4WLBo-18">
          <mxGeometry x="0.5984" y="1" relative="1" as="geometry">
            <mxPoint as="offset" />
          </mxGeometry>
        </mxCell>
        <mxCell id="x9mMvLB8LZn9rVJ4WLBo-22" style="edgeStyle=orthogonalEdgeStyle;rounded=0;orthogonalLoop=1;jettySize=auto;html=1;exitX=0.25;exitY=0.1;exitDx=0;exitDy=0;exitPerimeter=0;entryX=1;entryY=0.5;entryDx=0;entryDy=0;" edge="1" parent="1" source="x9mMvLB8LZn9rVJ4WLBo-5" target="x9mMvLB8LZn9rVJ4WLBo-13">
          <mxGeometry relative="1" as="geometry" />
        </mxCell>
        <mxCell id="x9mMvLB8LZn9rVJ4WLBo-23" value="Daten Zurückgeben" style="edgeLabel;html=1;align=center;verticalAlign=middle;resizable=0;points=[];" vertex="1" connectable="0" parent="x9mMvLB8LZn9rVJ4WLBo-22">
          <mxGeometry x="0.336" relative="1" as="geometry">
            <mxPoint as="offset" />
          </mxGeometry>
        </mxCell>
        <mxCell id="x9mMvLB8LZn9rVJ4WLBo-5" value="API" style="shape=umlActor;verticalLabelPosition=bottom;verticalAlign=top;html=1;outlineConnect=0;" vertex="1" parent="1">
          <mxGeometry x="900" y="120" width="30" height="60" as="geometry" />
        </mxCell>
        <mxCell id="x9mMvLB8LZn9rVJ4WLBo-6" style="edgeStyle=orthogonalEdgeStyle;rounded=0;orthogonalLoop=1;jettySize=auto;html=1;entryX=0;entryY=0.3333333333333333;entryDx=0;entryDy=0;entryPerimeter=0;" edge="1" parent="1" source="x9mMvLB8LZn9rVJ4WLBo-3" target="x9mMvLB8LZn9rVJ4WLBo-5">
          <mxGeometry relative="1" as="geometry" />
        </mxCell>
        <mxCell id="x9mMvLB8LZn9rVJ4WLBo-8" value="Daten Abfragen" style="edgeLabel;html=1;align=center;verticalAlign=middle;resizable=0;points=[];" vertex="1" connectable="0" parent="x9mMvLB8LZn9rVJ4WLBo-6">
          <mxGeometry x="0.0206" y="2" relative="1" as="geometry">
            <mxPoint as="offset" />
          </mxGeometry>
        </mxCell>
        <mxCell id="x9mMvLB8LZn9rVJ4WLBo-16" style="edgeStyle=orthogonalEdgeStyle;rounded=0;orthogonalLoop=1;jettySize=auto;html=1;exitX=1;exitY=0.25;exitDx=0;exitDy=0;" edge="1" parent="1" source="x9mMvLB8LZn9rVJ4WLBo-10" target="x9mMvLB8LZn9rVJ4WLBo-5">
          <mxGeometry relative="1" as="geometry" />
        </mxCell>
        <mxCell id="x9mMvLB8LZn9rVJ4WLBo-17" value="Daten Abfragen" style="edgeLabel;html=1;align=center;verticalAlign=middle;resizable=0;points=[];" vertex="1" connectable="0" parent="x9mMvLB8LZn9rVJ4WLBo-16">
          <mxGeometry x="-0.3539" y="4" relative="1" as="geometry">
            <mxPoint as="offset" />
          </mxGeometry>
        </mxCell>
        <mxCell id="x9mMvLB8LZn9rVJ4WLBo-10" value="Nächstes Pokémon ansehen" style="rounded=0;whiteSpace=wrap;html=1;" vertex="1" parent="1">
          <mxGeometry x="570" y="270" width="120" height="60" as="geometry" />
        </mxCell>
        <mxCell id="x9mMvLB8LZn9rVJ4WLBo-13" value="Nächstes Pokémon ansehen" style="rounded=0;whiteSpace=wrap;html=1;" vertex="1" parent="1">
          <mxGeometry x="550" y="70" width="120" height="60" as="geometry" />
        </mxCell>
        <mxCell id="x9mMvLB8LZn9rVJ4WLBo-20" style="edgeStyle=orthogonalEdgeStyle;rounded=0;orthogonalLoop=1;jettySize=auto;html=1;exitX=1;exitY=0.25;exitDx=0;exitDy=0;entryX=0.5;entryY=0;entryDx=0;entryDy=0;entryPerimeter=0;" edge="1" parent="1" source="x9mMvLB8LZn9rVJ4WLBo-13" target="x9mMvLB8LZn9rVJ4WLBo-5">
          <mxGeometry relative="1" as="geometry" />
        </mxCell>
        <mxCell id="x9mMvLB8LZn9rVJ4WLBo-21" value="Daten Abfragen" style="edgeLabel;html=1;align=center;verticalAlign=middle;resizable=0;points=[];" vertex="1" connectable="0" parent="x9mMvLB8LZn9rVJ4WLBo-20">
          <mxGeometry x="-0.2323" y="-1" relative="1" as="geometry">
            <mxPoint as="offset" />
          </mxGeometry>
        </mxCell>
      </root>
    </mxGraphModel>
  </diagram>
</mxfile>
